<?xml version="1.0" encoding="UTF-8" standalone="no"?>
<!-- Created with Inkscape (http://www.inkscape.org/) -->

<svg
   xmlns:dc="http://purl.org/dc/elements/1.1/"
   xmlns:cc="http://creativecommons.org/ns#"
   xmlns:rdf="http://www.w3.org/1999/02/22-rdf-syntax-ns#"
   xmlns:svg="http://www.w3.org/2000/svg"
   xmlns="http://www.w3.org/2000/svg"
   xmlns:sodipodi="http://sodipodi.sourceforge.net/DTD/sodipodi-0.dtd"
   xmlns:inkscape="http://www.inkscape.org/namespaces/inkscape"
   width="60.69342mm"
   height="60.594517mm"
   viewBox="0 0 60.693421 60.594517"
   version="1.1"
   id="svg8"
   inkscape:version="0.92.4 (5da689c313, 2019-01-14)"
   sodipodi:docname="logo-instagram.svg">
  <defs
     id="defs2" />
  <sodipodi:namedview
     id="base"
     pagecolor="#ffffff"
     bordercolor="#666666"
     borderopacity="1.0"
     inkscape:pageopacity="0.0"
     inkscape:pageshadow="2"
     inkscape:zoom="0.35"
     inkscape:cx="-242.21342"
     inkscape:cy="420.27341"
     inkscape:document-units="mm"
     inkscape:current-layer="layer1"
     showgrid="false"
     fit-margin-top="0"
     fit-margin-left="0"
     fit-margin-right="0"
     fit-margin-bottom="0"
     inkscape:window-width="1366"
     inkscape:window-height="705"
     inkscape:window-x="-8"
     inkscape:window-y="-8"
     inkscape:window-maximized="1" />
  <metadata
     id="metadata5">
    <rdf:RDF>
      <cc:Work
         rdf:about="">
        <dc:format>image/svg+xml</dc:format>
        <dc:type
           rdf:resource="http://purl.org/dc/dcmitype/StillImage" />
        <dc:title></dc:title>
      </cc:Work>
    </rdf:RDF>
  </metadata>
  <g
     inkscape:label="Capa 1"
     inkscape:groupmode="layer"
     id="layer1"
     transform="translate(-169.91897,-199.43616)">
    <path
       style="fill:#f8f9fa;stroke-width:0.26458332"
       d="m 187.49508,259.89561 c -6.40969,-0.45088 -10.81363,-2.5016 -13.74414,-6.40004 -3.33363,-4.43471 -3.83197,-7.52666 -3.83197,-23.77533 0,-16.21946 0.50659,-19.38954 3.79275,-23.73355 2.31426,-3.05924 5.60111,-5.04034 9.93049,-5.98546 2.38146,-0.51988 3.34525,-0.55299 16.42058,-0.56404 14.60171,-0.0123 15.85385,0.0674 19.44063,1.2378 4.51146,1.47215 8.361,5.32263 9.898,9.90043 1.12991,3.36531 1.22127,4.83052 1.21018,19.40941 -0.01,13.08905 -0.0425,14.03661 -0.56403,16.42058 -1.54317,7.05391 -5.9486,11.49313 -12.9011,13.00004 -2.14943,0.46588 -3.66685,0.52914 -14.57014,0.60747 -6.69395,0.0481 -13.48052,-0.005 -15.08125,-0.11731 z m 28.78148,-5.91238 c 4.65647,-1.10628 7.53538,-4.1919 8.44322,-9.04944 0.49315,-2.63874 0.49315,-27.78835 0,-30.42709 -0.95022,-5.0843 -4.12197,-8.25832 -9.17886,-9.18544 -2.62606,-0.48145 -27.80103,-0.48145 -30.42709,0 -5.05689,0.92712 -8.22864,4.10114 -9.17886,9.18544 -0.49315,2.63874 -0.49315,27.78835 0,30.42709 0.46705,2.49903 1.35241,4.3473 2.84872,5.94698 1.9542,2.08919 3.95982,2.90506 8.71139,3.54368 0.43657,0.0587 6.68735,0.0793 13.89063,0.0458 10.97133,-0.051 13.38802,-0.13002 14.89085,-0.48706 z m -19.38877,-9.06363 c -4.26193,-0.91442 -8.43436,-4.14855 -10.39271,-8.05561 -5.92239,-11.81556 4.22831,-25.0567 17.13959,-22.35783 5.81355,1.21522 10.69157,6.09324 11.90679,11.90679 2.33717,11.18093 -7.46615,20.90699 -18.65367,18.50665 z m 7.68493,-6.11612 c 3.65988,-1.72921 5.80882,-5.0895 5.80882,-9.08324 0,-7.39952 -7.61138,-12.23166 -14.30776,-9.08337 -2.16063,1.01582 -3.8089,2.66426 -4.84951,4.85004 -0.73716,1.54837 -0.81877,1.97033 -0.81877,4.23333 0,2.19839 0.0929,2.71259 0.7407,4.10105 0.84768,1.81677 2.73992,3.88947 4.28638,4.69517 1.90659,0.99332 3.0954,1.25639 5.30368,1.17366 1.71683,-0.0643 2.45909,-0.23586 3.83646,-0.88664 z m 10.12115,-22.30169 c -2.99669,-1.82719 -1.67122,-6.62529 1.83022,-6.62529 2.7554,0 4.55124,3.14401 3.12858,5.47725 -0.99298,1.62854 -3.29622,2.16178 -4.9588,1.14804 z"
       id="path21"
       inkscape:connector-curvature="0" />
  </g>
</svg>
