<?xml version="1.0" encoding="UTF-8" standalone="no"?>
<!-- Created with Inkscape (http://www.inkscape.org/) -->

<svg
   xmlns:dc="http://purl.org/dc/elements/1.1/"
   xmlns:cc="http://creativecommons.org/ns#"
   xmlns:rdf="http://www.w3.org/1999/02/22-rdf-syntax-ns#"
   xmlns:svg="http://www.w3.org/2000/svg"
   xmlns="http://www.w3.org/2000/svg"
   xmlns:sodipodi="http://sodipodi.sourceforge.net/DTD/sodipodi-0.dtd"
   xmlns:inkscape="http://www.inkscape.org/namespaces/inkscape"
   width="35.862751mm"
   height="67.582321mm"
   viewBox="0 0 35.862751 67.582321"
   version="1.1"
   id="svg38"
   inkscape:version="0.92.4 (5da689c313, 2019-01-14)"
   sodipodi:docname="logo-facebook.svg">
  <defs
     id="defs32" />
  <sodipodi:namedview
     id="base"
     pagecolor="#ffffff"
     bordercolor="#666666"
     borderopacity="1.0"
     inkscape:pageopacity="0.0"
     inkscape:pageshadow="2"
     inkscape:zoom="0.35"
     inkscape:cx="-269.64265"
     inkscape:cy="424.769"
     inkscape:document-units="mm"
     inkscape:current-layer="layer1"
     showgrid="false"
     fit-margin-top="0"
     fit-margin-left="0"
     fit-margin-right="0"
     fit-margin-bottom="0"
     inkscape:window-width="1366"
     inkscape:window-height="705"
     inkscape:window-x="-8"
     inkscape:window-y="-8"
     inkscape:window-maximized="1" />
  <metadata
     id="metadata35">
    <rdf:RDF>
      <cc:Work
         rdf:about="">
        <dc:format>image/svg+xml</dc:format>
        <dc:type
           rdf:resource="http://purl.org/dc/dcmitype/StillImage" />
        <dc:title></dc:title>
      </cc:Work>
    </rdf:RDF>
  </metadata>
  <g
     inkscape:label="Capa 1"
     inkscape:groupmode="layer"
     id="layer1"
     transform="translate(-177.17628,-193.63781)">
    <path
       style="fill:#f8f9fa;stroke-width:0.26458332"
       d="m 189.65781,261.07115 c -0.84778,-0.11858 -1.65042,-0.32459 -1.78363,-0.4578 -0.1389,-0.1389 -0.27139,-6.3876 -0.31065,-14.65107 l -0.0685,-14.40886 -5.15937,-0.1323 -5.15938,-0.13229 v -5.95312 -5.95313 l 5.15938,-0.13229 5.15937,-0.13229 0.17367,-6.21771 c 0.14095,-5.04617 0.27682,-6.60725 0.72111,-8.28515 1.76025,-6.64774 6.61989,-10.46448 13.93572,-10.94504 2.45524,-0.16128 8.99732,0.31281 10.0996,0.73189 l 0.6139,0.23341 -0.072,4.96526 -0.072,4.96526 -3.72747,0.15409 c -4.34723,0.17972 -5.72244,0.65417 -6.99733,2.4141 -1.08833,1.5024 -1.35972,3.19407 -1.26462,7.88285 l 0.0832,4.10104 5.54857,0.0717 c 3.05171,0.0394 5.63697,0.1601 5.74502,0.26815 0.21952,0.21952 -1.25434,10.43788 -1.63879,11.36183 -0.23877,0.57383 -0.36766,0.59106 -4.94998,0.66146 l -4.70482,0.0723 -0.0684,14.47783 c -0.0683,14.46019 -0.0691,14.4782 -0.63101,14.77893 -0.69393,0.37138 -8.4765,0.56242 -10.63161,0.26097 z"
       id="path76"
       inkscape:connector-curvature="0" />
  </g>
</svg>
