<svg width="1010" height="170" xmlns="http://www.w3.org/2000/svg">
 <style type="text/css">.st0{fill:#FFC107;}
	.st1{fill:#343A40;}
	.st2{fill:#F8F9FA;}
</style>
 <g>
  <g id="svg_1">
   <path id="svg_44" d="m107.34,96.55l20.02,-17.41c4.47,7.64 12.04,12.66 20.23,12.66c3.99,0 9.98,-1.79 11.01,-6.81c1.38,-6.67 -7.64,-11.76 -16.17,-16.99c-13.14,-8.05 -21.88,-19.26 -18.58,-35.09c3.44,-16.58 20.64,-28.35 39.97,-28.35c15.21,0 28.07,8.12 32.61,19.26l-19.61,16.79c-2.68,-5.44 -8.6,-9.15 -14.93,-9.15c-5.23,0 -8.81,3.1 -9.43,6.54c-1.1,5.71 8.19,9.77 15.82,14.31c14.17,8.46 23.26,19.33 20.23,35.71c-3.37,18.3 -19.06,30.62 -42.52,30.62c-19.87,0 -33.08,-9.43 -38.65,-22.09z" class="st0"/>
   <path id="svg_45" d="m285.33,33.74l-24.63,0l-16.24,83.39l-30.07,0l16.17,-83.39l-24.63,0l5.3,-27.52l79.47,0l-5.37,27.52z" class="st0"/>
   <path id="svg_46" d="m339.96,104.19l-37.63,0l-7.43,12.93l-34.54,0l70.25,-112.29l15.89,0l26.69,112.29l-30.69,0l-2.54,-12.93zm-4.27,-21.53l-5.37,-27.11l-15.62,27.11l20.99,0z" class="st0"/>
   <path id="svg_47" d="m452.51,73.85l22.98,43.28l-32.41,0l-20.37,-42.52l-8.26,42.52l-30,0l21.4,-110.91l37.22,0c22.5,0 38.46,14.86 34.54,38.05c-2.39,14.37 -12.02,25.52 -25.1,29.58zm-26,-19.27l7.98,0.07c7.36,0.14 12.8,-4.06 13.76,-10.46c0.96,-6.4 -3.3,-11.15 -9.56,-11.15l-7.98,0l-4.2,21.54z" class="st0"/>
  </g>
  <g id="svg_6">
   <g id="svg_54">
    <path id="svg_49" d="m539.84,33.55l-3.44,17.96l31.58,0l-4.82,24.63l-31.58,0l-7.98,41.08l-30.07,0l21.67,-111.32l69.08,0l-5.44,27.66l-39,0l0,-0.01z" class="st2"/>
    <path id="svg_50" d="m650.13,89.41l-5.37,27.66l-69.49,0l21.54,-110.91l30.27,0l-16.1,83.25l39.15,0z" class="st2"/>
    <path id="svg_51" d="m703.66,33.55l-3.03,15.48l31.58,0l-4.75,24.56l-31.58,0l-3.1,15.89l39.01,0l-5.37,27.59l-69.08,0l21.54,-110.91l69.08,0l-5.37,27.38l-38.93,0l0,0.01z" class="st2"/>
    <path id="svg_52" d="m789.18,33.55l-3.03,15.48l31.58,0l-4.75,24.56l-31.58,0l-3.1,15.89l39.01,0l-5.37,27.59l-69.08,0l21.54,-110.91l69.08,0l-5.37,27.38l-38.93,0l0,0.01z" class="st2"/>
    <path id="svg_53" d="m917.29,33.68l-24.63,0l-16.24,83.39l-30.07,0l16.17,-83.39l-24.63,0l5.3,-27.52l79.47,0l-5.37,27.52z" class="st2"/>
   </g>
  </g>
  <g id="svg_13">
   <g id="svg_62">
    <g id="svg_57">
     <polygon id="svg_56" points="111.5,10.28997802734375 105.16999816894531,31.6500244140625 20.540000915527344,31.6500244140625 28.449996948242188,10.28997802734375 " class="st2"/>
    </g>
    <g id="svg_59">
     <polygon id="svg_58" points="103.74000549316406,51.41998291015625 97.41000366210938,72.780029296875 12.769996643066406,72.780029296875 20.68000030517578,51.41998291015625 " class="st2"/>
    </g>
    <g id="svg_61">
     <polygon id="svg_60" points="97.41000366210938,92.54998779296875 91.08000183105469,113.90997314453125 6.4499969482421875,113.90997314453125 14.360000610351562,92.54998779296875 " class="st2"/>
    </g>
   </g>
  </g>
  <polygon id="svg_21" points="1002.5899658203125,50.03997802734375 961.050048828125,44 942.530029296875,6.469970703125 920.739990234375,112.5999755859375 942.469970703125,101.16998291015625 979.6199951171875,120.70001220703125 972.530029296875,79.33001708984375 " class="st0"/>
  <g id="svg_22">
   <g id="svg_85">
    <path id="svg_65" d="m254.1,142.64l-7.02,0l0,22.87l-5.76,0l0,-22.87l-7.03,0l0,-5.69l19.81,0l0,5.69z" class="st2"/>
    <path id="svg_66" d="m272.17,165.51l-9.09,-13.5l0,13.5l-5.74,0l-0.02,-28.56l9.32,0c5.33,0 9.71,4.11 9.71,9.25c0,3.67 -2.21,6.87 -5.28,7.95l8.11,11.36l-7.01,0zm-9.1,-15.7l3.69,0.02c1.95,0.02 3.69,-1.56 3.69,-3.6s-1.75,-3.6 -3.69,-3.6l-3.69,0l0,7.18z" class="st2"/>
    <path id="svg_67" d="m299.26,161.52l-11.43,0l-1.82,3.99l-6.2,0l13.64,-29.27l0.18,0l13.66,29.27l-6.22,0l-1.81,-3.99zm-2.23,-4.89l-3.47,-7.64l-3.49,7.64l6.96,0z" class="st2"/>
    <path id="svg_68" d="m333.1,136.88l0,29.16l-0.27,0l-16.95,-16.49l0,16l-5.74,0l0,-29.12l0.28,0l16.92,16.46l0,-16l5.76,0l0,-0.01z" class="st2"/>
    <path id="svg_69" d="m336.58,160.58l4.59,-3.22c1.26,2.02 3.08,2.94 5.54,2.94c2.69,0 4.5,-1.1 4.5,-2.62c0,-2.09 -3.42,-3.74 -6.41,-5.23c-3.21,-1.59 -6.73,-3.35 -6.73,-7.9c0,-4.94 4.18,-8.2 9.42,-8.2c3.9,0 7.12,1.61 8.42,5.07l-4.23,2.96c-0.85,-1.7 -2.5,-2.39 -4.09,-2.39c-2.14,0 -3.74,1.24 -3.74,2.71c0,1.7 2.16,2.29 5.44,3.83c4.73,2.23 7.71,4.64 7.71,9.04c0,5.21 -4.25,8.52 -10.36,8.52c-4.69,-0.01 -8.15,-1.96 -10.06,-5.51z" class="st2"/>
    <path id="svg_70" d="m360.46,136.95l10.03,0c5.53,0 10.04,4.34 10.04,9.66c0,5.3 -4.52,9.62 -10.04,9.62l-4.29,0l0,9.28l-5.74,0l0,-28.56zm14.34,9.6c0,-2.16 -1.93,-3.92 -4.3,-3.92l-4.29,0l0,7.9l4.29,0.02c2.36,0.02 4.3,-1.78 4.3,-4z" class="st2"/>
    <path id="svg_71" d="m382.52,151.27c0,-8.2 6.68,-14.9 14.85,-14.9c8.17,0 14.86,6.7 14.86,14.9c0,8.13 -6.7,14.79 -14.88,14.79c-8.15,0 -14.83,-6.66 -14.83,-14.79zm23.9,-0.04c0,-5 -4.07,-9.07 -9.07,-9.07c-4.98,0 -9.03,4.07 -9.03,9.07c0,4.96 4.06,9.02 9.03,9.02c5,0 9.07,-4.06 9.07,-9.02z" class="st2"/>
    <path id="svg_72" d="m430.8,165.51l-9.09,-13.5l0,13.5l-5.74,0l-0.02,-28.56l9.32,0c5.33,0 9.71,4.11 9.71,9.25c0,3.67 -2.21,6.87 -5.28,7.95l8.11,11.36l-7.01,0zm-9.1,-15.7l3.68,0.02c1.95,0.02 3.68,-1.56 3.68,-3.6s-1.75,-3.6 -3.68,-3.6l-3.68,0l0,7.18z" class="st2"/>
    <path id="svg_73" d="m457.91,142.64l-7.02,0l0,22.87l-5.76,0l0,-22.87l-7.03,0l0,-5.69l19.81,0l0,5.69z" class="st2"/>
    <path id="svg_74" d="m466.88,142.6l0,5.58l9.85,0l0,5.72l-9.85,0l0,5.9l11.48,0l0,5.7l-17.22,0l0,-28.56l17.22,0l0,5.65l-11.48,0l0,0.01z" class="st2"/>
    <path id="svg_75" d="m499.94,153.25l-8.84,-16.3l6.48,0l5.21,9.92l5.21,-9.92l6.5,0l-8.86,16.3l0,12.26l-5.7,0l0,-12.26z" class="st2"/>
    <path id="svg_76" d="m545.21,159.8l0,5.7l-17.22,0l0,-28.56l5.74,0l0,22.85l11.48,0l0,0.01z" class="st2"/>
    <path id="svg_77" d="m546.31,151.27c0,-8.2 6.68,-14.9 14.85,-14.9s14.86,6.7 14.86,14.9c0,8.13 -6.7,14.79 -14.88,14.79c-8.15,0 -14.83,-6.66 -14.83,-14.79zm23.9,-0.04c0,-5 -4.08,-9.07 -9.07,-9.07c-4.98,0 -9.04,4.07 -9.04,9.07c0,4.96 4.06,9.02 9.04,9.02c4.99,0 9.07,-4.06 9.07,-9.02z" class="st2"/>
    <path id="svg_78" d="m607.16,151.89c0,8.96 -6.18,14.19 -13.62,14.19c-8.42,0 -15.04,-6.66 -15.04,-14.81c0,-8.17 6.66,-14.9 14.83,-14.9c3.7,0.04 7.65,1.74 10.45,4.46l-3.19,4.77c-2.23,-2.18 -4.78,-3.42 -7.33,-3.42c-4.43,0 -8.91,3.76 -8.91,9.09c0,4.96 3.86,9.04 9.44,9.04c4.08,0 7,-2.09 7.19,-5.53l-7.39,0l0,-5.3l13.43,0c0.09,0.83 0.14,1.63 0.14,2.41z" class="st2"/>
    <path id="svg_79" d="m610.89,136.95l5.74,0l0,28.56l-5.74,0l0,-28.56z" class="st2"/>
    <path id="svg_80" d="m620.1,160.58l4.59,-3.22c1.26,2.02 3.08,2.94 5.54,2.94c2.69,0 4.5,-1.1 4.5,-2.62c0,-2.09 -3.42,-3.74 -6.41,-5.23c-3.21,-1.59 -6.73,-3.35 -6.73,-7.9c0,-4.94 4.18,-8.2 9.42,-8.2c3.9,0 7.12,1.61 8.41,5.07l-4.23,2.96c-0.85,-1.7 -2.5,-2.39 -4.09,-2.39c-2.14,0 -3.74,1.24 -3.74,2.71c0,1.7 2.16,2.29 5.44,3.83c4.73,2.23 7.71,4.64 7.71,9.04c0,5.21 -4.25,8.52 -10.36,8.52c-4.68,-0.01 -8.13,-1.96 -10.05,-5.51z" class="st2"/>
    <path id="svg_81" d="m662.06,142.64l-7.02,0l0,22.87l-5.76,0l0,-22.87l-7.03,0l0,-5.69l19.81,0l0,5.69z" class="st2"/>
    <path id="svg_82" d="m665.28,136.95l5.74,0l0,28.56l-5.74,0l0,-28.56z" class="st2"/>
    <path id="svg_83" d="m674.74,151.25c0,-8.06 6.79,-14.88 14.83,-14.88c3.72,0.05 7.01,1.52 10.01,4.41l-3.31,4.52c-1.95,-1.91 -4.29,-3.08 -6.75,-3.08c-4.59,0 -8.96,4.07 -8.96,9.07c0,5.08 4.54,9.02 8.95,9.02c2.62,0 4.89,-1.4 6.79,-3.26l3.29,4.64c-2.52,2.5 -5.58,4.38 -9.9,4.38c-8.25,-0.01 -14.95,-6.8 -14.95,-14.82z" class="st2"/>
    <path id="svg_84" d="m720.15,161.52l-11.43,0l-1.83,3.99l-6.2,0l13.64,-29.27l0.18,0l13.66,29.27l-6.22,0l-1.8,-3.99zm-2.23,-4.89l-3.47,-7.64l-3.49,7.64l6.96,0z" class="st2"/>
   </g>
  </g>
 </g>
</svg>